<svg xmlns="http://www.w3.org/2000/svg" viewBox="0 0 52.1 62.99"><path d="M44.45 7.39c-10.308-9.864-26.608-9.685-36.697.403S-2.514 34.182 7.35 44.49l18.5 18.5 18.5-18.5c10.252-10.171 10.342-26.719.2-37a.1.1 0 0 1-.1-.1z" fill="#e75858"/><path d="M25.85 48.19h0c-12.371-.055-22.355-10.129-22.3-22.5s10.129-22.355 22.5-22.3 22.355 10.129 22.3 22.5c-.083 12.36-10.14 22.328-22.5 22.3z" fill="#fff"/><circle cx="15.75" cy="21.09" r="1.7" fill="#fefeff"/><g fill="#4c4c4c"><path d="M40.75 19.69l-.64-.25-.32-.12a2.81 2.81 0 0 0-.31-.1 5 5 0 0 0-.63-.18l-.31-.08-.32-.05h-.15-.16-.15-.16-.95-.15-.14l-.3.05-.28.07-.28.09h-.07-.07l-.14.05a.75.75 0 0 0-.13.06l-.14.06-.13.06-.13.07-.13.07-.13.07-.25.16-.25.16-.24.18-.24.19-.11.1-.11.1-.12.1-.11.11-.21.21-.41.45-.19.24-.09.11-.07.11-.88-1.23h.16.14.29.56a5.28 5.28 0 0 1 .56 0h.29.28l.56.07.28.05.27.06.28.08.27.08.27.1.13.05.13.06.51.26.24.15.24.16.11.09.11.09.11.09.05.05v.05l.2.19.19.21.09.11a.44.44 0 0 1 .08.11l.17.22.27.48.06.12a.61.61 0 0 1 0 .12 2.77 2.77 0 0 1 .1.26 1.83 1.83 0 0 1 .08.25 2 2 0 0 1 .07.26l-.17-.21-.17-.19-.03-.28-.18-.18c-.12-.12-.25-.22-.37-.33l-.2-.15-.1-.07-.1-.07-.2-.13-.21-.07h-.05 0l-.11-.06-.11-.05h-.1l-.22-.09-.22-.08-.45-.13h-.11-.12-.23-.23-.23-.47-.46a3.85 3.85 0 0 0-.48 0h-.46l-.47.07h-.22-.11-.09a.8.8 0 0 1-1-.54.78.78 0 0 1 .09-.65h0l.06-.09.06-.08.11-.16a3.25 3.25 0 0 1 .23-.29 6.55 6.55 0 0 1 .49-.56c.09-.08.17-.17.26-.26l.14-.12.14-.13.14-.12.15-.11a3.3 3.3 0 0 1 .3-.22 2.11 2.11 0 0 1 .31-.21l.32-.2.34-.17.17-.08.17-.08.18-.07.18-.06.18-.06.18-.06a6.63 6.63 0 0 1 .72-.34h.38.57.19.19.18.19.18l.36.09.18.05.17.06.17.06.17.08.33.14.31.18c.21.11.4.25.6.38l.27.22c.1.07.18.15.27.22s.33.35.49.52z"/><circle cx="15.49" cy="21.25" r="4.14"/></g><g fill="#fefeff"><circle cx="16.87" cy="20.38" r="1.6"/><path d="M33.92 31.54a9.84 9.84 0 0 1-.39 1.83 6.63 6.63 0 0 1-6.05 4.92c-3.9.43-6.28-.75-7.74-2.32a7.87 7.87 0 0 1-1.09-1.54 9.68 9.68 0 0 1-1.17-3.84s10.5 1.32 16.45-1.9a12.13 12.13 0 0 1-.01 2.85z"/></g><g fill="#4c4c4c"><path d="M26.91 39.2a8.47 8.47 0 0 1-8-4.37 10.42 10.42 0 0 1-1.26-4.2.81.81 0 0 1 .26-.65.85.85 0 0 1 .67-.21 45.34 45.34 0 0 0 4.92.26c3.29 0 7.89-.36 11.05-2.07a.82.82 0 0 1 .76 0 .81.81 0 0 1 .45.62 12.37 12.37 0 0 1 0 3.07 11 11 0 0 1-.42 2 7.47 7.47 0 0 1-6.75 5.49 16 16 0 0 1-1.68.06zm-7.48-7.68a9.19 9.19 0 0 0 .92 2.51 7 7 0 0 0 1 1.38 7.25 7.25 0 0 0 5.56 2.14 12.76 12.76 0 0 0 1.48-.09 5.83 5.83 0 0 0 5.35-4.33 9.52 9.52 0 0 0 .36-1.69 13.79 13.79 0 0 0 .08-1.48 29 29 0 0 1-10.69 1.73c-1.71 0-3.14-.09-4.06-.17z"/><path d="M25.03 35.24a.45.45 0 0 1-.38.45h-.29-.29l-.57.07-1.17.1h-1.18-.4a7.87 7.87 0 0 1-1.1-1.43.78.78 0 0 1 .43-.13h.11l.54.11.54.09 1.1.14c.36 0 .73.07 1.1.09h.56.56a.46.46 0 0 1 .44.51zm9.89-3.7a9.84 9.84 0 0 1-.39 1.83h-.05l-1.49.49-.8.23-.37.1-.33.08-.5.12h-.19a.44.44 0 0 1-.27-.83h0l.17-.07.46-.2.3-.13.33-.16.72-.35 1.31-.71.24-.14.19-.1.16-.1a.9.9 0 0 1 .51-.06z"/></g></svg>